# xmcd
#
# Track frame offsets:
#	150
#	20587
#	36526
#	79365
#	105429
#	132587
#	162372
#	191066
#	223353
#	249274
#	272584
#	297882
#
# Disc length: 4122 seconds
#
# Revision: 1
# Processed by: cddbd v1.4PL0 Copyright (c) Steve Scherf et al.
# Submitted via: EasyCDDAExtractor 5.0.7
#
DISCID=b710180c
DTITLE=Grana Louise - Generations
DYEAR=2003
DGENRE=Blues
TTITLE0=Big Annie's Fanny
TTITLE1=Smoke Stack Lightning
TTITLE2=City Slicker Bill
TTITLE3=It's Another Workday
TTITLE4=Stranger in Moscow
TTITLE5=Down in the Dungeon
TTITLE6=Big Fat Daddy
TTITLE7=Summertime
TTITLE8=Sing Sing Prison Blues
TTITLE9=My Baby Is Ugly
TTITLE10=Little Red Rooster
TTITLE11=Great GrandMother Maggie
EXTD=
EXTT0=
EXTT1=
EXTT2=
EXTT3=
EXTT4=
EXTT5=
EXTT6=
EXTT7=
EXTT8=
EXTT9=
EXTT10=
EXTT11=
PLAYORDER=
